<?xml version="1.0" encoding="UTF-8"?>
<svg width="4px" height="4px" viewBox="0 0 4 4" version="1.1" xmlns="http://www.w3.org/2000/svg" xmlns:xlink="http://www.w3.org/1999/xlink">
    <title>pause</title>
    <g id="pause" stroke="none" stroke-width="1" fill="none" fill-rule="evenodd">
        <rect id="Rectangle" fill-opacity="0.1" fill="#000000" x="0" y="0" width="4" height="4" rx="2"></rect>
        <path d="M1.3,1 C1.46568542,1 1.6,1.13431458 1.6,1.3 L1.6,2.7 C1.6,2.86568542 1.46568542,3 1.3,3 C1.13431458,3 1,2.86568542 1,2.7 L1,1.3 C1,1.13431458 1.13431458,1 1.3,1 Z M2.7,1 C2.86568542,1 3,1.13431458 3,1.3 L3,2.7 C3,2.86568542 2.86568542,3 2.7,3 C2.53431458,3 2.4,2.86568542 2.4,2.7 L2.4,1.3 C2.4,1.13431458 2.53431458,1 2.7,1 Z" id="Combined-Shape" fill="#000000"></path>
    </g>
</svg>