<?xml version="1.0" encoding="UTF-8"?>
<svg width="36px" height="36px" viewBox="0 0 36 36" version="1.1" xmlns="http://www.w3.org/2000/svg" xmlns:xlink="http://www.w3.org/1999/xlink">
    <title>gruppe_detailed</title>
    <g id="gruppe_detailed" stroke="none" stroke-width="1" fill="none" fill-rule="evenodd" stroke-linecap="round" stroke-linejoin="round">
        <g id="Group" transform="translate(3.000000, 3.000000)" stroke="#000000" stroke-width="0.8">
            <g id="detailed" transform="translate(5.750000, 6.400000)">
                <path d="M12.6,17.1 C12.7927067,17.1 13.1031785,17.1 13.5314156,17.1 C13.9168289,17.1 14.4307133,16.7487719 14.4307133,16.0782456 C14.4307133,15.628739 14.4307133,15.011429 14.4307133,14.2263158 C14.6876556,13.9708772 14.8161267,13.7580117 14.8161267,13.5877193 C14.8161267,13.4174269 14.6555378,13.2364912 14.33436,13.0449123 C14.6983615,12.8320468 14.8803622,12.6511111 14.8803622,12.5021053 C14.8803622,12.3530994 14.7304793,12.1295906 14.4307133,11.8315789 L14.4307133,10.7459649 C14.9231795,10.7459649 15.3192988,10.7459649 15.6190711,10.7459649 C16.5504867,10.7459649 16.7056194,10.4169804 16.2614267,9.62842105 C15.6618948,8.56409357 15.3621289,8.02128655 15.3621289,8" id="Path-2" transform="translate(14.550000, 12.550000) scale(-1, 1) translate(-14.550000, -12.550000) "></path>
                <path d="M13.6,9.1 C13.7927067,9.1 14.1031785,9.1 14.5314156,9.1 C14.9168289,9.1 15.4307133,8.74877193 15.4307133,8.07824561 C15.4307133,7.62873896 15.4307133,7.01142902 15.4307133,6.22631579 C15.6876556,5.97087719 15.8161267,5.7580117 15.8161267,5.5877193 C15.8161267,5.4174269 15.6555378,5.23649123 15.33436,5.04491228 C15.6983615,4.83204678 15.8803622,4.65111111 15.8803622,4.50210526 C15.8803622,4.35309942 15.7304793,4.12959064 15.4307133,3.83157895 L15.4307133,2.74596491 C15.9231795,2.74596491 16.3192988,2.74596491 16.6190711,2.74596491 C17.5504867,2.74596491 17.7056194,2.41698044 17.2614267,1.62842105 C16.6618948,0.564093567 16.3621289,0.0212865497 16.3621289,0" id="Path-2" transform="translate(15.550000, 4.550000) scale(-1, 1) translate(-15.550000, -4.550000) "></path>
                <path d="M0,13.2 C0.192706668,13.2 0.503178522,13.2 0.931415561,13.2 C1.3168289,13.2 1.83071334,12.8487719 1.83071334,12.1782456 C1.83071334,11.728739 1.83071334,11.111429 1.83071334,10.3263158 C2.08765557,10.0708772 2.21612668,9.8580117 2.21612668,9.6877193 C2.21612668,9.5174269 2.05553779,9.33649123 1.73436001,9.14491228 C2.09836149,8.93204678 2.28036224,8.75111111 2.28036224,8.60210526 C2.28036224,8.45309942 2.13047927,8.22959064 1.83071334,7.93157895 L1.83071334,6.84596491 C2.3231795,6.84596491 2.71929876,6.84596491 3.01907113,6.84596491 C3.95048669,6.84596491 4.10561937,6.51698044 3.66142669,5.72842105 C3.06189483,4.66409357 2.76212891,4.12128655 2.76212891,4.1" id="Path-2"></path>
                <path d="M7.75,8 L7.75876289,4.9 L3.3,4.9 L3.3,8.3960452 C4.47938144,8.39868173 5.41271478,8.4 6.1,8.4 C6.76666667,8.96666667 7.91666667,9.25 9.55,9.25 L7.75,8 Z" id="Path-2" transform="translate(6.425000, 7.075000) scale(-1, 1) translate(-6.425000, -7.075000) "></path>
                <path d="M12.4587629,3.2960452 C12.452921,2.23201507 12.452921,1.13333333 12.4587629,0 L8,0 L8,3.4960452 C9.13402062,3.4960452 10.0446735,3.4960452 10.7319588,3.4960452 C10.8106529,4.19868173 11.85,4.7 13.85,5 C13.0166667,4.36666667 12.552921,3.79868173 12.4587629,3.2960452 Z" id="Path-2"></path>
                <path d="M11.1587629,14.3960452 C11.152921,14.0986817 11.152921,13.85 11.1587629,13.65 C11.852921,13.65 12.55,13.5333333 13.25,13.3 C12.3166667,12.9666667 11.6195876,12.5166667 11.1587629,11.95 C11.152921,11.6833333 11.152921,11.3333333 11.1587629,10.9 L6.7,10.9 L6.7,14.3960452 L11.1587629,14.3960452 Z" id="Path-2"></path>
            </g>
        </g>
    </g>
</svg>