<?xml version="1.0" encoding="UTF-8"?>
<svg width="36px" height="36px" viewBox="0 0 36 36" version="1.1" xmlns="http://www.w3.org/2000/svg" xmlns:xlink="http://www.w3.org/1999/xlink">
    <title>leise_simple</title>
    <g id="leise_simple" stroke="none" stroke-width="1" fill="none" fill-rule="evenodd" stroke-linecap="round" stroke-linejoin="round">
        <g id="Group" transform="translate(3.000000, 3.000000)" stroke="#000000" stroke-width="0.8">
            <g id="simple" transform="translate(7.500000, 9.900000)">
                <path d="M6.65,10.05 C6.06166829,9.95194472 5.50524169,10.3493923 5.40718641,10.937724 C5.38120431,11.0936166 5.38975423,11.253312 5.4322323,11.4055394 C6.05440583,13.6351798 7.54366173,14.75 9.9,14.75" id="Path"></path>
                <path d="M6.65,12.45 L6.65,6.875 C6.65,6.39175084 7.04175084,6 7.525,6 C8.00824916,6 8.4,6.39175084 8.4,6.875 L8.4,9.65 L8.4,9.65 C8.93333333,9.11666667 9.4,8.98333333 9.8,9.25 C10.4,9.65 10.85,9.25 11.3,9.75 C11.75,10.25 12.3,9.9 12.7,10.45 C13.1,11 13.25,14.75 9.9,14.75 C7.73333333,14.75 6.65,13.9833333 6.65,12.45 Z" id="Path-6"></path>
                <path d="M15.0002279,-4.26325641e-15 C13.7589183,1.3381651 13,3.13079803 13,5.1 C13,7.06942318 13.7584426,8.86155166 15,10.1997651" id="Path"></path>
                <path d="M2.00022788,-2.84217094e-15 C0.758918332,1.3381651 -8.8817842e-16,3.13079803 -8.8817842e-16,5.1 C-8.8817842e-16,7.06942318 0.758442619,8.86155166 2,10.1997651" id="Path" transform="translate(1.000114, 5.099883) scale(-1, 1) translate(-1.000114, -5.099883) "></path>
            </g>
        </g>
    </g>
</svg>