<?xml version="1.0" encoding="UTF-8"?>
<svg width="36px" height="36px" viewBox="0 0 36 36" version="1.1" xmlns="http://www.w3.org/2000/svg" xmlns:xlink="http://www.w3.org/1999/xlink">
    <title>partner_detailed</title>
    <g id="partner_detailed" stroke="none" stroke-width="1" fill="none" fill-rule="evenodd" stroke-linecap="round" stroke-linejoin="round">
        <g id="Group" transform="translate(3.000000, 3.000000)" stroke="#000000" stroke-width="0.8">
            <g id="detailed" transform="translate(5.700000, 5.800000)">
                <path d="M-2.13162821e-15,16.6375 L-2.13162821e-15,14.6875 C1.1,14.6875 1.98333333,14.6875 2.65,14.6875 C3.25,14.6875 4.05,14.1375 4.05,13.0875 C4.05,12.3836022 4.05,11.4169355 4.05,10.1875 C4.45,9.7875 4.65,9.45416667 4.65,9.1875 C4.65,8.92083333 4.4,8.6375 3.9,8.3375 C4.46666667,8.00416667 4.75,7.72083333 4.75,7.4875 C4.75,7.25416667 4.51666667,6.90416667 4.05,6.4375 L4.05,4.7375 C4.81665664,4.7375 5.4333233,4.7375 5.9,4.7375 C7.35,4.7375 7.59150593,4.22233201 6.9,2.9875 C5.96666667,1.32083333 5.5,0.470833333 5.5,0.4375" id="Path-2"></path>
                <path d="M12.65,17.7 C12.8427067,17.7 13.1531785,17.7 13.5814156,17.7 C13.9668289,17.7 14.4807133,17.3487719 14.4807133,16.6782456 C14.4807133,16.228739 14.4807133,15.611429 14.4807133,14.8263158 C14.7376556,14.5708772 14.8661267,14.3580117 14.8661267,14.1877193 C14.8661267,14.0174269 14.7055378,13.8364912 14.38436,13.6449123 C14.7483615,13.4320468 14.9303622,13.2511111 14.9303622,13.1021053 C14.9303622,12.9530994 14.7804793,12.7295906 14.4807133,12.4315789 L14.4807133,11.3459649 C14.9731795,11.3459649 15.3692988,11.3459649 15.6690711,11.3459649 C16.6004867,11.3459649 16.7556194,11.0169804 16.3114267,10.2284211 C15.7118948,9.16409357 15.4121289,8.62128655 15.4121289,8.6" id="Path-2" transform="translate(14.600000, 13.150000) scale(-1, 1) translate(-14.600000, -13.150000) "></path>
                <path d="M13.3,4.1 L13.3,3.35 C12.6666667,3.01666667 12.35,2.66666667 12.35,2.3 C12.35,1.75 12.6,1.35 13.3,1.35 C14,1.35 14.25,1.75 14.25,2.3" id="Path-2" transform="translate(13.300000, 2.725000) scale(-1, 1) translate(-13.300000, -2.725000) "></path>
                <line x1="13.325" y1="5.1" x2="13.325" y2="5" id="Path-2" transform="translate(13.325000, 5.050000) scale(-1, 1) translate(-13.325000, -5.050000) "></line>
                <path d="M15.1,6.8 C15.5666667,6.8 16.05,6.8 16.55,6.8 L16.55,0 L7.9,0 L7.9,6.8 C10.1,6.8 11.8666667,6.8 13.2,6.8 C13.7,7.86666667 15.1666667,8.55 17.6,8.85 C16.2333333,8.25 15.4,7.56666667 15.1,6.8 Z" id="Path-2" transform="translate(12.750000, 4.425000) scale(-1, 1) translate(-12.750000, -4.425000) "></path>
            </g>
        </g>
    </g>
</svg>