<?xml version="1.0" encoding="UTF-8"?>
<svg width="9px" height="3px" viewBox="0 0 9 3" version="1.1" xmlns="http://www.w3.org/2000/svg" xmlns:xlink="http://www.w3.org/1999/xlink">
    <title>min</title>
    <g id="min" stroke="none" stroke-width="1" fill="none" fill-rule="evenodd" stroke-linecap="round" stroke-linejoin="round">
        <path d="M7,2.5 L7,1.25 C7,0.835786438 7.33578644,0.5 7.75,0.5 C8.16421356,0.5 8.5,0.835786438 8.5,1.25 L8.5,2.5 L8.5,2.5" id="Path-5" stroke="#979797"></path>
        <line x1="5.25" y1="0.5" x2="5.25" y2="2.5" id="Path-6" stroke="#979797"></line>
        <line x1="2.75" y1="0.5" x2="1.25" y2="0.5" id="Path-6" stroke="#979797"></line>
        <path d="M0.5,2.5 L0.5,1.25 C0.5,0.835786438 0.835786438,0.5 1.25,0.5 C1.66421356,0.5 2,0.835786438 2,1.25 L2,2.5 L2,2.5 L2,1.25 C2,0.835786438 2.33578644,0.5 2.75,0.5 C3.16421356,0.5 3.5,0.835786438 3.5,1.25 L3.5,2.5 L3.5,2.5" id="Path-5" stroke="#979797"></path>
    </g>
</svg>