<?xml version="1.0" encoding="UTF-8"?>
<svg width="36px" height="36px" viewBox="0 0 36 36" version="1.1" xmlns="http://www.w3.org/2000/svg" xmlns:xlink="http://www.w3.org/1999/xlink">
    <title>gruppe_simple</title>
    <g id="gruppe_simple" stroke="none" stroke-width="1" fill="none" fill-rule="evenodd" stroke-linejoin="round">
        <g id="Group" transform="translate(3.000000, 3.000000)" stroke="#000000" stroke-width="0.8">
            <g id="simple" transform="translate(5.554809, 7.500000)">
                <path d="M11.5787833,14.6921664 C14.6815667,13.7731181 16.9451905,10.9009079 16.9451905,7.5 C16.9451905,6.88586988 16.8713771,6.2889798 16.7321381,5.71771758 M14.5828221,2.03602035 C13.2406424,0.773522595 11.4332494,0 9.44519053,0 C7.42573009,0 5.59268787,0.798151295 4.24430875,2.096209 M2.15133585,5.74630092 C2.0165641,6.30888017 1.94519053,6.89610499 1.94519053,7.5 C1.94519053,10.8807395 4.18204603,13.7390334 7.25648532,14.6756099" id="Shape"></path>
                <circle id="Oval" cx="9.44519053" cy="15" r="2.15"></circle>
                <circle id="Oval" transform="translate(2.950000, 3.750000) rotate(120.000000) translate(-2.950000, -3.750000) " cx="2.95" cy="3.75" r="2.15"></circle>
                <circle id="Oval" transform="translate(15.940381, 3.750000) rotate(240.000000) translate(-15.940381, -3.750000) " cx="15.9403811" cy="3.75" r="2.15"></circle>
            </g>
        </g>
    </g>
</svg>