<?xml version="1.0" encoding="UTF-8"?>
<svg width="36px" height="36px" viewBox="0 0 36 36" version="1.1" xmlns="http://www.w3.org/2000/svg" xmlns:xlink="http://www.w3.org/1999/xlink">
    <title>leise_detailed</title>
    <g id="leise_detailed" stroke="none" stroke-width="1" fill="none" fill-rule="evenodd" stroke-linecap="round" stroke-linejoin="round">
        <g id="Group" transform="translate(3.000000, 3.000000)" stroke="#000000" stroke-width="0.8">
            <g id="detailed" transform="translate(5.700000, 6.237500)">
                <path d="M4.75,7.05 C5,7.3125 5.65,7.4625 6.4,8.95 C6.4,7.8625 6.4,4.99139243 6.4,4.35 M6.4,1.65 C6.4,0.4 8.3,0.4 8.3,1.65 C8.3,3.03748259 8.3,3.22081592 8.3,5.9 C8.3,4 8.3,2.5 8.3,1.4 C8.3,-0.25 10.25,-0.25 10.25,1.4 C10.25,2.5 10.25,4 10.25,5.9 C10.25,3.8 10.25,3.7 10.25,2.3 C10.25,0.9 11.9,0.9 11.9,2.35 C11.9,2.40034917 11.9,3.5836825 11.9,5.9 C11.9,4.94166667 11.9,4.0125 11.9,3.1125 C11.9,1.7625 13.2,1.8125 13.2,3.1125 M13.6,7.85 C13.6,12.35 13,12.45 12.15,13.5 L12.15,16.2 M7.4,16.2 L7.4,13.5 C5.7,12.3125 4.3922299,10.1313254 4.05,9.7625" id="Shape"></path>
                <path d="M-2.13162821e-15,16.2 L-2.13162821e-15,14.25 C1.1,14.25 1.98333333,14.25 2.65,14.25 C3.25,14.25 4.05,13.7 4.05,12.65 C4.05,11.9461022 4.05,10.9794355 4.05,9.75 C4.45,9.35 4.65,9.01666667 4.65,8.75 C4.65,8.48333333 4.4,8.2 3.9,7.9 C4.46666667,7.56666667 4.75,7.28333333 4.75,7.05 C4.75,6.81666667 4.51666667,6.46666667 4.05,6 L4.05,4.3 C4.81665664,4.3 5.4333233,4.3 5.9,4.3 C7.35,4.3 7.59150593,3.78483201 6.9,2.55 C5.96666667,0.883333333 5.5,0.0333333333 5.5,0" id="Path-2"></path>
                <path d="M18.35,9.95 C16.75,12 15.6333333,12.65 14,8.95 C11.55,3.4 13.7909553,1.55 15.45,1.55 C17.3833333,1.55 18.45,3.1 18.65,6.2 C16.05,6.1 15.4166667,7.01666667 16.75,8.95" id="Path"></path>
                <path d="M15.1,10.7625 C12.25,5.2125 14.0441256,2.65 15.3606529,2.65 C15.85,2.65 17,2.65 17.45,5.1" id="Path"></path>
            </g>
        </g>
    </g>
</svg>