<?xml version="1.0" encoding="UTF-8"?>
<svg width="36px" height="36px" viewBox="0 0 36 36" version="1.1" xmlns="http://www.w3.org/2000/svg" xmlns:xlink="http://www.w3.org/1999/xlink">
    <title>partner_simple</title>
    <g id="partner_simple" stroke="none" stroke-width="1" fill="none" fill-rule="evenodd" stroke-linecap="round" stroke-linejoin="round">
        <g id="Group" transform="translate(3.000000, 3.000000)" stroke="#000000" stroke-width="0.8">
            <g id="simple" transform="translate(7.500000, 9.900000)">
                <path d="M15.0002279,-2.84217094e-15 C13.7589183,1.3381651 13,3.13079803 13,5.1 C13,7.06942318 13.7584426,8.86155166 15,10.1997651" id="Path"></path>
                <path d="M2.00022788,-2.84217094e-15 C0.758918332,1.3381651 -8.8817842e-16,3.13079803 -8.8817842e-16,5.1 C-8.8817842e-16,7.06942318 0.758442619,8.86155166 2,10.1997651" id="Path" transform="translate(1.000114, 5.099883) scale(-1, 1) translate(-1.000114, -5.099883) "></path>
                <polyline id="Path-4" points="3.75 4.125 10.75 4.125 9.25 2.65"></polyline>
                <polyline id="Path-4" transform="translate(7.250000, 6.912500) scale(-1, -1) translate(-7.250000, -6.912500) " points="3.75 7.65 10.75 7.65 9.25 6.175"></polyline>
            </g>
        </g>
    </g>
</svg>