<?xml version="1.0" encoding="UTF-8"?>
<svg width="36px" height="36px" viewBox="0 0 36 36" version="1.1" xmlns="http://www.w3.org/2000/svg" xmlns:xlink="http://www.w3.org/1999/xlink">
    <title>ruhe_simple</title>
    <g id="ruhe_simple" stroke="none" stroke-width="1" fill="none" fill-rule="evenodd" stroke-linejoin="round">
        <g id="Group" transform="translate(3.000000, 3.000000)" stroke="#000000" stroke-width="0.8">
            <g id="simple" transform="translate(7.500000, 7.500000)">
                <circle id="Oval" cx="7.5" cy="7.5" r="7.5"></circle>
                <path d="M6.65,12.45 C6.06166829,12.3519447 5.50524169,12.7493923 5.40718641,13.337724 C5.38120431,13.4936166 5.38975423,13.653312 5.4322323,13.8055394 C5.52476988,14.13716 5.63648857,14.4441191 5.76738837,14.7264169" id="Path" stroke-linecap="round"></path>
                <path d="M6.65,14.85 L6.65,9.275 C6.65,8.79175084 7.04175084,8.4 7.525,8.4 C8.00824916,8.4 8.4,8.79175084 8.4,9.275 L8.4,12.05 L8.4,12.05 C8.93333333,11.5166667 9.4,11.3833333 9.8,11.65 C10.4,12.05 10.85,11.65 11.3,12.15 C11.75,12.65 12.3,12.3 12.7,12.85" id="Path" stroke-linecap="round"></path>
            </g>
        </g>
    </g>
</svg>