<?xml version="1.0" encoding="UTF-8"?>
<svg width="36px" height="36px" viewBox="0 0 36 36" version="1.1" xmlns="http://www.w3.org/2000/svg" xmlns:xlink="http://www.w3.org/1999/xlink">
    <title>ruhe_detailed</title>
    <g id="ruhe_detailed" stroke="none" stroke-width="1" fill="none" fill-rule="evenodd" stroke-linecap="round" stroke-linejoin="round">
        <g id="Group" transform="translate(3.000000, 3.000000)" stroke="#000000" stroke-width="0.8">
            <g id="detailed" transform="translate(5.700000, 6.237500)">
                <path d="M-2.13162821e-15,16.2 L-2.13162821e-15,14.25 C1.1,14.25 1.98333333,14.25 2.65,14.25 C3.25,14.25 4.05,13.7 4.05,12.65 C4.05,11.9461022 4.05,10.9794355 4.05,9.75 C4.45,9.35 4.65,9.01666667 4.65,8.75 C4.65,8.48333333 4.4,8.2 3.9,7.9 C4.46666667,7.56666667 4.75,7.28333333 4.75,7.05 C4.75,6.81666667 4.51666667,6.46666667 4.05,6 L4.05,4.3 C4.81665664,4.3 5.4333233,4.3 5.9,4.3 C7.35,4.3 7.59150593,3.78483201 6.9,2.55 C5.96666667,0.883333333 5.5,0.0333333333 5.5,0" id="Path-2"></path>
                <path d="M4.6,17.45 C4.41198485,16.4382773 4.59531819,15.7382773 5.15,15.35 C5.65,15 5.9,14.4076537 5.9,13.95 C5.9,12.9 5.9,9.75461052 5.9,6.95 C5.9,5.7 7.9,5.7 7.9,6.95 C7.9,8.33748259 7.9,10.1208159 7.9,12.3 C8.26666667,11.6666667 8.71666667,11.3833333 9.25,11.45 C9.78333333,11.5166667 10.1833333,12 10.45,12.9 C10.7833333,12.2333333 11.2,11.9333333 11.7,12 C12.2,12.0666667 12.55,12.5666667 12.75,13.5 C13.05,12.8666667 13.4833333,12.6166667 14.05,12.75 C14.6166667,12.8833333 14.8833333,13.3833333 14.85,14.25" id="Path-2"></path>
            </g>
        </g>
    </g>
</svg>