<?xml version="1.0" encoding="UTF-8"?>
<svg width="4px" height="4px" viewBox="0 0 4 4" version="1.1" xmlns="http://www.w3.org/2000/svg" xmlns:xlink="http://www.w3.org/1999/xlink">
    <title>icon</title>
    <g id="icon" stroke="none" stroke-width="1" fill="none" fill-rule="evenodd">
        <rect id="Rectangle" fill-opacity="0.05" fill="#D8D8D8" x="0" y="0" width="4" height="4" rx="2"></rect>
        <path d="M2,0.8 C2.6627417,0.8 3.2,1.3372583 3.2,2 C3.2,2.15337097 3.17122728,2.30002171 3.11878522,2.43484886 L2.71715729,2.03431458 C2.63905243,1.95620972 2.51241943,1.95620972 2.43431458,2.03431458 C2.37183069,2.09679846 2.35933391,2.19034036 2.39682424,2.26524745 L2.43431458,2.31715729 L2.9049319,2.78812449 C2.68494193,3.04050696 2.36109676,3.2 2,3.2 C1.3372583,3.2 0.8,2.6627417 0.8,2 C0.8,1.84662903 0.828772716,1.69997829 0.881214784,1.56515114 L1.28284271,1.96568542 C1.36094757,2.04379028 1.48758057,2.04379028 1.56568542,1.96568542 C1.64379028,1.88758057 1.64379028,1.76094757 1.56568542,1.68284271 L1.56568542,1.68284271 L1.0950681,1.21187551 C1.31505807,0.959493039 1.63890324,0.8 2,0.8 Z" id="Combined-Shape" fill="#000000"></path>
    </g>
</svg>