<?xml version="1.0" encoding="UTF-8"?>
<svg width="4px" height="4px" viewBox="0 0 4 4" version="1.1" xmlns="http://www.w3.org/2000/svg" xmlns:xlink="http://www.w3.org/1999/xlink">
    <title>increase</title>
    <g id="increase" stroke="none" stroke-width="1" fill="none" fill-rule="evenodd">
        <rect id="Rectangle" fill-opacity="0.1" fill="#000000" x="0" y="0" width="4" height="4" rx="2"></rect>
        <path d="M2,0.8 C2.6627417,0.8 3.2,1.3372583 3.2,2 C3.2,2.6627417 2.6627417,3.2 2,3.2 C1.3372583,3.2 0.8,2.6627417 0.8,2 C0.8,1.3372583 1.3372583,0.8 2,0.8 Z M2,1.2 C1.89244981,1.2 1.80472728,1.28489227 1.80018478,1.39132442 L1.8,1.4 L1.8,1.8 L1.4,1.8 C1.28954305,1.8 1.2,1.88954305 1.2,2 C1.2,2.10755019 1.28489227,2.19527272 1.39132442,2.19981522 L1.4,2.2 L1.8,2.2 L1.8,2.6 C1.8,2.71045695 1.88954305,2.8 2,2.8 C2.10755019,2.8 2.19527272,2.71510773 2.19981522,2.60867558 L2.2,2.6 L2.2,2.2 L2.6,2.2 C2.71045695,2.2 2.8,2.11045695 2.8,2 C2.8,1.89244981 2.71510773,1.80472728 2.60867558,1.80018478 L2.6,1.8 L2.2,1.8 L2.2,1.4 C2.2,1.28954305 2.11045695,1.2 2,1.2 Z" id="Shape" fill="#000000"></path>
    </g>
</svg>