<?xml version="1.0" encoding="UTF-8"?>
<svg width="4px" height="4px" viewBox="0 0 4 4" version="1.1" xmlns="http://www.w3.org/2000/svg" xmlns:xlink="http://www.w3.org/1999/xlink">
    <title>next</title>
    <g id="next" stroke="none" stroke-width="1" fill="none" fill-rule="evenodd">
        <rect id="Rectangle" fill-opacity="0" fill="#000000" x="0" y="0" width="4" height="4" rx="2"></rect>
        <path d="M2,0.8 C2.6627417,0.8 3.2,1.3372583 3.2,2 C3.2,2.6627417 2.6627417,3.2 2,3.2 C1.3372583,3.2 0.8,2.6627417 0.8,2 C0.8,1.3372583 1.3372583,0.8 2,0.8 Z M2.29877425,1.42603495 C2.2224535,1.38264336 2.12366603,1.39349126 2.05857864,1.45857864 C1.98047379,1.5366835 1.98047379,1.6633165 2.05857864,1.74142136 L2.05857864,1.74142136 L2.117,1.8 L1.4,1.8 L1.34683208,1.80714419 C1.26218267,1.83042863 1.2,1.90795254 1.2,2 C1.2,2.10755019 1.28489227,2.19527272 1.4,2.2 L1.4,2.2 L2.116,2.2 L2.05857864,2.25857864 L2.02108831,2.31048849 C1.98359798,2.38539557 1.99609476,2.47893747 2.05857864,2.54142136 C2.12366603,2.60650874 2.2224535,2.61735664 2.29877425,2.57396505 L2.29877425,2.57396505 L2.34142136,2.54142136 L2.74404485,2.13874858 C2.75652798,2.12579197 2.7672794,2.11115535 2.7761214,2.09488047 C2.77927791,2.08902674 2.78212147,2.08304887 2.78449766,2.07733957 C2.78954937,2.06530277 2.79345751,2.05266745 2.79600905,2.03986429 C2.79729943,2.03348945 2.7982769,2.02706386 2.7989545,2.02057568 L2.79973649,2.01035629 L2.79973649,2.01035629 L2.8,2 C2.8,1.94622491 2.77877693,1.89740672 2.74424985,1.86146451 L2.74424985,1.86146451 L2.34142136,1.45857864 Z" id="Shape" fill="#000000"></path>
    </g>
</svg>