<?xml version="1.0" encoding="UTF-8"?>
<svg width="4px" height="4px" viewBox="0 0 4 4" version="1.1" xmlns="http://www.w3.org/2000/svg" xmlns:xlink="http://www.w3.org/1999/xlink">
    <title>previous</title>
    <g id="previous" stroke="none" stroke-width="1" fill="none" fill-rule="evenodd">
        <rect id="Rectangle" fill-opacity="0.1" fill="#000000" x="0" y="0" width="4" height="4" rx="2"></rect>
        <path d="M2,0.8 C2.6627417,0.8 3.2,1.3372583 3.2,2 C3.2,2.6627417 2.6627417,3.2 2,3.2 C1.3372583,3.2 0.8,2.6627417 0.8,2 C0.8,1.3372583 1.3372583,0.8 2,0.8 Z M1.70122575,1.42603495 L1.65857864,1.45857864 L1.25575015,1.86146451 C1.2327321,1.88542598 1.21562694,1.91511011 1.20678106,1.94817051 L1.2,2 L1.20026351,2.01035629 L1.20026351,2.01035629 L1.2010455,2.02057568 C1.2017231,2.02706386 1.20270057,2.03348945 1.20399095,2.03986429 C1.20654249,2.05266745 1.21045063,2.06530277 1.21550234,2.07733957 C1.21787853,2.08304887 1.22072209,2.08902674 1.2238786,2.09488047 C1.2327206,2.11115535 1.24347202,2.12579197 1.25595515,2.13874858 L1.65857864,2.54142136 L1.70122575,2.57396505 C1.7775465,2.61735664 1.87633397,2.60650874 1.94142136,2.54142136 C2.00390524,2.47893747 2.01640202,2.38539557 1.97891169,2.31048849 L1.94142136,2.25857864 L1.884,2.2 L2.6,2.2 C2.71510773,2.19527272 2.8,2.10755019 2.8,2 C2.8,1.90795254 2.73781733,1.83042863 2.65316792,1.80714419 L2.6,1.8 L1.883,1.8 L1.94142136,1.74142136 C2.01952621,1.6633165 2.01952621,1.5366835 1.94142136,1.45857864 C1.87633397,1.39349126 1.7775465,1.38264336 1.70122575,1.42603495 Z" id="Shape" fill="#000000"></path>
    </g>
</svg>